<svg id="_001-store" data-name="001-store" xmlns="http://www.w3.org/2000/svg" width="23.749" height="22.07" viewBox="0 0 23.749 22.07">
  <g id="Group_23" data-name="Group 23" transform="translate(0 0)">
    <g id="Group_22" data-name="Group 22">
      <path id="Path_46" data-name="Path 46" d="M23.616,54.3,19.9,48.36A.748.748,0,0,0,19.3,48H4.453a.748.748,0,0,0-.609.357L.134,54.3,0,54.76a3.215,3.215,0,0,0,2.969,3.429A2.8,2.8,0,0,0,5.2,57.035a2.8,2.8,0,0,0,2.226,1.154,2.8,2.8,0,0,0,2.226-1.154,2.724,2.724,0,0,0,4.453,0,2.724,2.724,0,0,0,4.453,0,2.8,2.8,0,0,0,2.226,1.154,3.215,3.215,0,0,0,2.969-3.429Z" transform="translate(0 -48.003)" fill="#555bfe"/>
    </g>
  </g>
  <g id="Group_25" data-name="Group 25" transform="translate(1.698 11.198)">
    <g id="Group_24" data-name="Group 24">
      <path id="Path_47" data-name="Path 47" d="M50.9,259.761a3.883,3.883,0,0,1-2.181-.686,3.9,3.9,0,0,1-4.361,0,3.9,3.9,0,0,1-4.361,0,3.9,3.9,0,0,1-4.361,0A3.86,3.86,0,0,1,32,259.43v8.819a1.591,1.591,0,0,0,1.454,1.7h11.63v-8.488h4.361v8.488H50.9a1.591,1.591,0,0,0,1.454-1.7v-8.8A3.787,3.787,0,0,1,50.9,259.761Zm-10.177,6.791H34.911v-5.093h5.815Z" transform="translate(-32.003 -259.075)" fill="#555bfe"/>
    </g>
  </g>
</svg>
