<svg xmlns="http://www.w3.org/2000/svg" width="21.802" height="22.07" viewBox="0 0 21.802 22.07">
  <g id="_002-increased-revenue" data-name="002-increased-revenue" transform="translate(0)">
    <g id="Layer_1_87_" transform="translate(0)">
      <g id="Group_26" data-name="Group 26">
        <path id="Path_48" data-name="Path 48" d="M40.386,8.72c0-.393-.4-.508-.71-.577V9.286C40.023,9.262,40.386,9.1,40.386,8.72Z" transform="translate(-21.18 -4.319)" fill="#e98c00"/>
        <path id="Path_49" data-name="Path 49" d="M38.207,4.185c-.393.011-.647.243-.647.491,0,.289.215.456.648.542V4.185Z" transform="translate(-20.057 -2.22)" fill="#e98c00"/>
        <path id="Path_50" data-name="Path 50" d="M35.339,6.981a3.49,3.49,0,1,0-3.492-3.49A3.494,3.494,0,0,0,35.339,6.981ZM33.8,2.588a1.263,1.263,0,0,1,1.373-1.212V1.069a.174.174,0,1,1,.346,0v.307c.449.012,1.374.294,1.374.861a.347.347,0,0,1-.364.357c-.376,0-.37-.617-1.01-.629v1.1c.763.162,1.437.387,1.437,1.276,0,.773-.577,1.166-1.437,1.218v.357a.174.174,0,1,1-.346,0V5.556c-.975-.024-1.46-.607-1.46-1.063a.333.333,0,0,1,.357-.363c.647,0,.144.8,1.1.837V3.76C34.322,3.6,33.8,3.229,33.8,2.588Z" transform="translate(-17.027)" fill="#e98c00"/>
        <path id="Path_51" data-name="Path 51" d="M4.822,33.113H1.813a1,1,0,0,0-1,1V38.63a1,1,0,0,0,1,1H4.822a1,1,0,0,0,1-1V34.116A1,1,0,0,0,4.822,33.113Z" transform="translate(-0.563 -17.565)" fill="#e98c00"/>
        <path id="Path_52" data-name="Path 52" d="M21.386,25.637H18.377a1,1,0,0,0-1,1v8.025a1,1,0,0,0,1,1h3.009a1,1,0,0,0,1-1V26.639A1,1,0,0,0,21.386,25.637Z" transform="translate(-9.35 -13.599)" fill="#e98c00"/>
        <path id="Path_53" data-name="Path 53" d="M37.953,17.091H34.944a1,1,0,0,0-1,1V30.131a1,1,0,0,0,1,1h3.009a1,1,0,0,0,1-1V18.094A1,1,0,0,0,37.953,17.091Z" transform="translate(-18.138 -9.066)" fill="#e98c00"/>
        <path id="Path_54" data-name="Path 54" d="M14.085,10.372l-2.491-.521a.5.5,0,0,0-.545.727l.552,1.038L.556,17.313a.5.5,0,0,0,.231.947.493.493,0,0,0,.23-.056l11.055-5.7.507.952a.5.5,0,0,0,.443.266h.025a.5.5,0,0,0,.439-.311l.962-2.356a.5.5,0,0,0-.022-.425A.51.51,0,0,0,14.085,10.372Z" transform="translate(-0.285 -5.22)" fill="#e98c00"/>
      </g>
    </g>
  </g>
</svg>
