<svg xmlns="http://www.w3.org/2000/svg" width="19.479" height="22.07" viewBox="0 0 19.479 22.07">
  <g id="_003-medical" data-name="003-medical" transform="translate(0)">
    <path id="Path_55" data-name="Path 55" d="M378.186,0A2.286,2.286,0,0,0,375.9,2.286v6.82h3.925a.647.647,0,0,0,.647-.647V2.286A2.286,2.286,0,0,0,378.186,0Z" transform="translate(-360.992 0)" fill="#d50000"/>
    <path id="Path_56" data-name="Path 56" d="M36.572,16.251a7.12,7.12,0,0,1,7.135-7.112V2.564A3.842,3.842,0,0,1,44.686,0h-11.4A3.236,3.236,0,0,0,30.05,3.232v18.18a.647.647,0,0,0,1.114.447l.827-.864.874.874a.647.647,0,0,0,.914,0l.828-.828.836.829a.647.647,0,0,0,.911,0l.85-.842.85.842a.646.646,0,0,0,.91,0l.165-.163A7.1,7.1,0,0,1,36.572,16.251ZM35.281,5.216h1.276V3.94a.647.647,0,0,1,1.293,0V5.216h1.276a.647.647,0,1,1,0,1.293H37.85V7.785a.647.647,0,1,1-1.293,0V6.509H35.281a.647.647,0,0,1,0-1.293ZM33.324,9.744h4.354a.647.647,0,1,1,0,1.293H33.324a.647.647,0,0,1,0-1.293Zm2.157,6.461H33.319a.647.647,0,1,1,0-1.293h2.162a.647.647,0,1,1,0,1.293Zm.431-2.582H33.322a.647.647,0,1,1,0-1.293h2.591a.647.647,0,1,1,0,1.293Z" transform="translate(-30.05 0)" fill="#d50000"/>
    <path id="Path_57" data-name="Path 57" d="M217.181,242A5.819,5.819,0,1,0,223,247.819,5.826,5.826,0,0,0,217.181,242Zm.649,8.309v.061a.647.647,0,1,1-1.293,0v-.011a2.481,2.481,0,0,1-.771-.323.647.647,0,1,1,.708-1.082,1.128,1.128,0,0,0,.915.138.462.462,0,0,0,.261-.339c.032-.286-.417-.446-.684-.552a2.11,2.11,0,0,1-1.2-.888,1.506,1.506,0,0,1,.774-2.087v-.033a.646.646,0,0,1,1.293-.01,1.625,1.625,0,0,1,.619.347.647.647,0,0,1-.877.951.605.605,0,0,0-.577-.042.221.221,0,0,0-.1.247c.137.246.852.331,1.393.753a1.648,1.648,0,0,1-.457,2.869Z" transform="translate(-203.547 -231.569)" fill="#d50000"/>
  </g>
</svg>
