<svg xmlns="http://www.w3.org/2000/svg" width="25.539" height="22.07" viewBox="0 0 25.539 22.07">
  <g id="_004-commission" data-name="004-commission" transform="translate(0)">
    <path id="Path_58" data-name="Path 58" d="M96.913,1.991h.913V1.078h15.529v.913h.913v9a2.017,2.017,0,0,1,.913-.091V.165H96V9.208a3.731,3.731,0,0,1,.913-.548Zm0,0" transform="translate(-90.519 -0.165)" fill="#0c75ff"/>
    <path id="Path_59" data-name="Path 59" d="M132.293,45.455l1.051,1.05a.485.485,0,0,0,.548.091l9.637-5.024v-8.5a.916.916,0,0,1-.913-.913h-13.7a.916.916,0,0,1-.913.913V38.6a3.642,3.642,0,0,1,3.06,1.05l1.918,1.918a2.345,2.345,0,0,1,0,3.243Zm-.639-7.765-.913-.091a5,5,0,0,1,9.957,1,4.931,4.931,0,0,1-4.933,4.522v-.913a4.111,4.111,0,0,0,0-8.221A4.15,4.15,0,0,0,131.654,37.691Zm3.654,3.151v-.913h.913v.913Zm0-5.481v.913h-.913v-.913Zm-2.192,4.75,4.111-5.024.685.594L133.8,40.705Zm0,0" transform="translate(-120.692 -30.337)" fill="#0c75ff"/>
    <path id="Path_60" data-name="Path 60" d="M0,192.621v7.308a.431.431,0,0,0,.457.457h3.2v-8.221H.457A.431.431,0,0,0,0,192.621Zm0,0" transform="translate(0 -181.202)" fill="#0c75ff"/>
    <path id="Path_61" data-name="Path 61" d="M100.417,163.379a1.223,1.223,0,0,0-1.188-.046l-10.185,5.3a1.377,1.377,0,0,1-1.6-.228l-4.567-4.567.64-.64,2.877,2.878.685-.685a1.324,1.324,0,0,0,0-1.918l-1.918-1.918a2.785,2.785,0,0,0-3.882,0L80,162.785v7.947l6.12,2.74a2.251,2.251,0,0,0,2.147-.183l12.149-7.856a1.235,1.235,0,0,0,.365-1.69.707.707,0,0,0-.365-.365Zm0,0" transform="translate(-75.433 -151.595)" fill="#0c75ff"/>
  </g>
</svg>
