<svg id="_005-profits" data-name="005-profits" xmlns="http://www.w3.org/2000/svg" width="19.397" height="22.07" viewBox="0 0 19.397 22.07">
  <path id="Path_62" data-name="Path 62" d="M151.643,3.922h.647V5.259a.646.646,0,0,0,.647.647h2.586a.646.646,0,0,0,.647-.647V3.922h.647a.647.647,0,0,0,.457-1.1L154.686.189a.646.646,0,0,0-.914,0l-2.586,2.629a.647.647,0,0,0,.457,1.1Z" transform="translate(-145.824 0)" fill="#00a743"/>
  <path id="Path_63" data-name="Path 63" d="M246.173,272a5.173,5.173,0,1,0,5.173,5.173A5.173,5.173,0,0,0,246.173,272Zm1.083,7.5a2.438,2.438,0,0,1-.437.167v.179a.647.647,0,0,1-1.293,0v-.159a2.055,2.055,0,0,1-.733-.341.647.647,0,1,1,.776-1.035,1.167,1.167,0,0,0,1.109.032c.142-.071.218-.156.218-.2,0-.077,0-.089-.086-.135a3.069,3.069,0,0,0-.756-.2,3.881,3.881,0,0,1-1.128-.33,1.376,1.376,0,0,1-.77-1.276,1.526,1.526,0,0,1,.932-1.357,2.433,2.433,0,0,1,.438-.168V274.5a.647.647,0,1,1,1.293,0v.158a2.057,2.057,0,0,1,.733.341.647.647,0,0,1-.776,1.035,1.168,1.168,0,0,0-1.11-.032c-.143.071-.217.155-.217.2,0,.077,0,.089.086.135a3.071,3.071,0,0,0,.756.2,3.879,3.879,0,0,1,1.129.33,1.376,1.376,0,0,1,.77,1.276A1.527,1.527,0,0,1,247.256,279.5Z" transform="translate(-231.948 -260.275)" fill="#00a743"/>
  <path id="Path_64" data-name="Path 64" d="M91.647,168.94h11.638a.647.647,0,0,0,.647-.647v-.647a.647.647,0,0,0-.647-.647H91.647a.647.647,0,0,0-.647.647v.647A.647.647,0,0,0,91.647,168.94Z" transform="translate(-88.414 -159.801)" fill="#00a743"/>
  <path id="Path_65" data-name="Path 65" d="M61,467.647v.647a.647.647,0,0,0,.647.647h8.446A6.48,6.48,0,0,1,68.365,467H61.647A.647.647,0,0,0,61,467.647Z" transform="translate(-59.707 -446.87)" fill="#00a743"/>
  <path id="Path_66" data-name="Path 66" d="M61,317.647v.647a.647.647,0,0,0,.647.647H67.6a6.382,6.382,0,0,1,.769-1.94H61.647A.647.647,0,0,0,61,317.647Z" transform="translate(-59.707 -303.336)" fill="#00a743"/>
  <path id="Path_67" data-name="Path 67" d="M31.647,393.94h7.442a6.376,6.376,0,0,1-.33-1.94H31.647a.647.647,0,0,0-.647.647v.647A.647.647,0,0,0,31.647,393.94Z" transform="translate(-31 -375.103)" fill="#00a743"/>
  <path id="Path_68" data-name="Path 68" d="M31.647,243.94h8.972A6.441,6.441,0,0,1,45.225,242H31.647a.647.647,0,0,0-.647.647v.647A.647.647,0,0,0,31.647,243.94Z" transform="translate(-31 -231.568)" fill="#00a743"/>
</svg>
